<svg xmlns="http://www.w3.org/2000/svg" width="110.713" height="114.305" viewBox="0 0 110.713 114.305">
  <g id="グループ_1" data-name="グループ 1" transform="translate(-1401 -340.503)">
    <path id="パス_44" data-name="パス 44" d="M8.149,88.2V50.142L55.356,2.935l47.207,47.207v62.246H8.149Z" transform="translate(1401 339.953)" fill="#fff"/>
    <rect id="長方形_2" data-name="長方形 2" width="22.144" height="19.85" transform="translate(1460.465 405.429)" fill="#88c5e9"/>
    <path id="パス_45" data-name="パス 45" d="M5.749,51.279v61.109a2.435,2.435,0,0,0,2.4,2.4H90.906c3.818,0,7.671.152,11.487,0h.17a2.435,2.435,0,0,0,2.4-2.4V51.279c0-3.088-4.8-3.093-4.8,0v61.109l2.4-2.4H12c-1.208,0-2.479-.113-3.684,0h-.17l2.4,2.4V51.279c0-3.088-4.8-3.093-4.8,0Z" transform="translate(1401 339.953)" fill="#211715"/>
    <path id="パス_46" data-name="パス 46" d="M4.1,57.585,22.064,39.621,50.492,11.193l6.561-6.561H53.659L71.623,22.6l28.428,28.428,6.561,6.561c2.187,2.187,5.582-1.206,3.394-3.394L92.042,36.227,63.614,7.8,57.053,1.238a2.438,2.438,0,0,0-3.394,0L35.7,19.2,7.267,47.63.706,54.191c-2.187,2.187,1.206,5.582,3.394,3.394Z" transform="translate(1401 339.953)" fill="#211715"/>
    <path id="パス_47" data-name="パス 47" d="M81.609,63.076H59.465a2.434,2.434,0,0,0-2.4,2.4v19.85a2.435,2.435,0,0,0,2.4,2.4H81.609a2.435,2.435,0,0,0,2.4-2.4V65.476c0-3.089-4.8-3.094-4.8,0v19.85l2.4-2.4H59.465l2.4,2.4V65.476l-2.4,2.4H81.609C84.7,67.876,84.7,63.076,81.609,63.076Z" transform="translate(1401 339.953)" fill="#211715"/>
    <path id="パス_48" data-name="パス 48" d="M8.149,77.8H33.655l-2.4-2.4v36.992c0,3.088,4.8,3.093,4.8,0V75.4a2.434,2.434,0,0,0-2.4-2.4H8.149C5.06,73,5.055,77.8,8.149,77.8Z" transform="translate(1401 339.953)" fill="#211715"/>
  </g>
</svg>
